<?xml version="1.0" encoding="utf-8"?>
<!-- Generator: Adobe Illustrator 26.0.3, SVG Export Plug-In . SVG Version: 6.00 Build 0)  -->
<svg version="1.1" id="Capa_1" xmlns="http://www.w3.org/2000/svg" xmlns:xlink="http://www.w3.org/1999/xlink" x="0px" y="0px"
	 viewBox="0 0 896 896" style="enable-background:new 0 0 896 896;" xml:space="preserve">
<path d="M448,0C200.6,0,0,200.6,0,448s200.6,448,448,448s448-200.6,448-448S695.4,0,448,0z M663.3,337.7c0.3,4.7,0.3,9.6,0.3,14.4
	c0,146.8-111.8,315.9-316.1,315.9c-63,0-121.4-18.3-170.6-49.8c9,1,17.6,1.4,26.8,1.4c52,0,99.8-17.6,137.9-47.4
	c-48.8-1-89.8-33-103.8-77c17.1,2.5,32.5,2.5,50.1-2c-51.8-10.5-89-56.1-88.9-109v-1.4c14.7,8.3,32,13.4,50.1,14.1
	c-30.9-20.6-49.5-55.3-49.5-92.4c0-20.7,5.4-39.6,15.1-56c56.4,69.4,139.7,111.6,229,116.1C428,289.1,484.4,228,552.2,228
	c32,0,60.8,13.4,81.1,35c25.1-4.7,49.1-14.1,70.5-26.7c-8.3,25.7-25.7,47.4-48.8,61.1c22.4-2.4,44-8.6,64-17.3
	C703.9,302.3,685,322,663.3,337.7z"/>
</svg>
