<?xml version="1.0" encoding="utf-8"?>
<!-- Generator: Adobe Illustrator 26.0.3, SVG Export Plug-In . SVG Version: 6.00 Build 0)  -->
<svg version="1.1" id="Capa_1" xmlns="http://www.w3.org/2000/svg" xmlns:xlink="http://www.w3.org/1999/xlink" x="0px" y="0px"
	 viewBox="0 0 19.2 19.2" style="enable-background:new 0 0 19.2 19.2;" xml:space="preserve">
<path d="M11.2,9.4L9,8.4c-0.2-0.1-0.4,0-0.4,0.2v2c0,0.2,0.2,0.3,0.4,0.2l2.2-1C11.4,9.7,11.4,9.5,11.2,9.4z M9.6,0
	C4.3,0,0,4.3,0,9.6s4.3,9.6,9.6,9.6s9.6-4.3,9.6-9.6S14.9,0,9.6,0z M9.6,13.5c-4.9,0-5-0.4-5-3.9s0.1-3.9,5-3.9s5,0.4,5,3.9
	S14.5,13.5,9.6,13.5z"/>
</svg>
