<?xml version="1.0" encoding="utf-8"?>
<!-- Generator: Adobe Illustrator 26.0.3, SVG Export Plug-In . SVG Version: 6.00 Build 0)  -->
<svg version="1.1" id="Capa_1" xmlns="http://www.w3.org/2000/svg" xmlns:xlink="http://www.w3.org/1999/xlink" x="0px" y="0px"
	 viewBox="0 0 711.07 270.13" style="enable-background:new 0 0 711.07 270.13;" xml:space="preserve">
<style type="text/css">
	.st0{fill:url(#SVGID_1_);}
	.st1{fill:url(#SVGID_00000121267845078144897390000007769795017179964322_);}
	.st2{fill:#333333;}
</style>
<linearGradient id="SVGID_1_" gradientUnits="userSpaceOnUse" x1="27.3116" y1="134.4937" x2="300.4734" y2="134.4937">
	<stop  offset="0" style="stop-color:#03C7EE"/>
	<stop  offset="0.197" style="stop-color:#26A3EA"/>
	<stop  offset="0.4299" style="stop-color:#497FE6"/>
	<stop  offset="0.6484" style="stop-color:#6265E3"/>
	<stop  offset="0.8448" style="stop-color:#7155E2"/>
	<stop  offset="1" style="stop-color:#7650E1"/>
</linearGradient>
<polygon class="st0" points="262.72,35.97 205.29,2.81 161.88,27.87 118.47,2.81 61.03,35.97 3.59,69.13 3.59,135.45 3.59,266.18 
	90.45,225.74 90.41,151.75 113.96,138.13 233.45,151.74 234.11,224.63 320.16,266.18 320.16,135.45 320.16,69.13 "/>
<linearGradient id="SVGID_00000055702991876620574580000005823708066362908090_" gradientUnits="userSpaceOnUse" x1="161.9281" y1="199.0271" x2="161.9281" y2="-105.8589">
	<stop  offset="0" style="stop-color:#0E43A3"/>
	<stop  offset="1" style="stop-color:#7650E1"/>
</linearGradient>
<polygon style="fill:url(#SVGID_00000055702991876620574580000005823708066362908090_);" points="90.41,69.16 126.17,48.52 
	161.93,27.87 197.69,48.52 233.45,69.16 233.44,110.45 233.45,151.74 197.69,172.39 161.93,193.03 126.17,172.39 90.41,151.74 
	90.41,110.45 "/>
<g>
	<g>
		<path class="st2" d="M348.36,68.88h13.66l24.48,24.56l24.48-24.56h13.66v67.35h-13.66V87.79l-24.48,23.57l-24.48-23.57v48.43
			h-13.66V68.88z"/>
		<path class="st2" d="M441.6,68.88h57.35v11.98h-43.69V94.3h38.7v11.25h-38.7v18.74h44.6v11.94H441.6V68.88z"/>
		<path class="st2" d="M517.23,68.88h24.69c7.21,0,13.47,0.78,18.79,2.33c5.31,1.55,9.72,3.77,13.21,6.66
			c3.49,2.89,6.09,6.39,7.8,10.51c1.71,4.12,2.56,8.75,2.56,13.9c0,4.88-0.85,9.4-2.54,13.55c-1.7,4.15-4.28,7.74-7.76,10.77
			c-3.48,3.03-7.87,5.4-13.19,7.11c-5.32,1.71-11.58,2.56-18.79,2.56l-24.78-0.04V68.88z M545.28,124.42
			c4.08,0,7.66-0.52,10.73-1.57c3.07-1.05,5.64-2.53,7.69-4.46c2.05-1.92,3.6-4.25,4.63-6.98c1.03-2.73,1.55-5.77,1.55-9.14
			c0-3.3-0.52-6.28-1.55-8.94c-1.03-2.66-2.58-4.91-4.63-6.77c-2.05-1.85-4.62-3.28-7.69-4.29c-3.07-1.01-6.65-1.51-10.73-1.51
			h-14.39v43.65H545.28z"/>
		<path class="st2" d="M598.46,68.88h13.75v67.35h-13.75V68.88z"/>
		<path class="st2" d="M657,68.88h14.48l32.58,67.35H689.7l-5.39-11.33h-39.34l-5.21,11.33h-14.39L657,68.88z M678.93,113.65
			l-14.56-30.59l-14.18,30.59H678.93z"/>
	</g>
	<g>
		<path class="st2" d="M348.5,146.82h63.13c7.71,0,14.43,0.82,20.15,2.46c5.72,1.64,10.47,3.89,14.25,6.77
			c3.78,2.87,6.59,6.29,8.43,10.24c1.84,3.96,2.76,8.23,2.76,12.82c0,7.51-2.37,14.09-7.11,19.73c5.44,3.23,9.5,7.41,12.17,12.55
			c2.67,5.14,4.01,10.99,4.01,17.54c0,5.49-0.92,10.46-2.76,14.89c-1.84,4.44-4.64,8.23-8.39,11.38c-3.76,3.15-8.49,5.57-14.21,7.26
			c-5.72,1.69-12.46,2.53-20.22,2.53h-72.2V146.82z M420.85,192.19c2.07,0,4.08,0.07,6.05,0.23c3.38-3.22,5.07-6.9,5.07-11.04
			c0-4.28-1.68-7.6-5.03-9.94c-3.35-2.34-8.25-3.51-14.7-3.51h-39.77v24.27H420.85z M421.31,244.12c6.45,0,11.35-1.39,14.7-4.16
			c3.35-2.77,5.03-6.68,5.03-11.72c0-5.04-1.68-8.97-5.03-11.79c-3.35-2.82-8.25-4.23-14.7-4.23h-48.84v31.9H421.31z"/>
		<path class="st2" d="M466.62,205.57c0-8.92,1.64-17.09,4.91-24.5c3.28-7.41,7.87-13.77,13.8-19.09
			c5.92-5.32,13.03-9.44,21.32-12.36c8.29-2.92,17.48-4.38,27.56-4.38c10.03,0,19.2,1.46,27.52,4.38
			c8.32,2.92,15.44,7.04,21.36,12.36c5.92,5.32,10.52,11.68,13.8,19.09c3.28,7.41,4.91,15.58,4.91,24.5c0,8.97-1.64,17.2-4.91,24.68
			c-3.28,7.48-7.88,13.92-13.8,19.32c-5.92,5.39-13.04,9.59-21.36,12.59c-8.32,3-17.49,4.5-27.52,4.5c-10.08,0-19.27-1.5-27.56-4.5
			c-8.29-3-15.4-7.19-21.32-12.59c-5.92-5.39-10.52-11.83-13.8-19.32C468.25,222.77,466.62,214.54,466.62,205.57z M490.58,205.57
			c0,6.1,1.1,11.59,3.29,16.48c2.19,4.89,5.24,9.06,9.15,12.51c3.9,3.45,8.52,6.11,13.84,7.98c5.32,1.87,11.1,2.8,17.35,2.8
			c6.25,0,12.03-0.93,17.35-2.8c5.32-1.86,9.92-4.52,13.8-7.98c3.88-3.45,6.93-7.62,9.15-12.51c2.22-4.89,3.33-10.38,3.33-16.48
			c0-6.1-1.11-11.57-3.33-16.41c-2.22-4.84-5.27-8.93-9.15-12.29c-3.88-3.35-8.48-5.91-13.8-7.67c-5.32-1.76-11.1-2.65-17.35-2.65
			c-6.25,0-12.03,0.88-17.35,2.65c-5.32,1.77-9.93,4.32-13.84,7.67c-3.91,3.35-6.96,7.45-9.15,12.29
			C491.68,194,490.58,199.47,490.58,205.57z"/>
		<path class="st2" d="M629.21,204.96l-45.44-58.14h29.33l31.38,40.67l31.53-40.67h28.88l-46.27,57.91l47.86,60.26h-29.41
			l-33.64-42.49l-34.4,42.49h-28.96L629.21,204.96z"/>
	</g>
</g>
</svg>
